<svg width="23" height="24" viewBox="0 0 23 24" fill="none" xmlns="http://www.w3.org/2000/svg">
<path d="M1.8013 4.6L18.5059 21.4706M1.8013 4.6C2.42281 3.86598 3.35111 3.4 4.38823 3.4H10.0353M1.8013 4.6C1.30143 5.19035 1 5.95409 1 6.78823V19.2118C1 21.083 2.51696 22.6 4.38823 22.6H16.8118C18.683 22.6 20.2 21.083 20.2 19.2118V14.1294M10.0353 14.1294L2.69412 21.4706M18.04 4.84V4.76781M21.88 4.75652C21.88 7.26087 18.04 10.6 18.04 10.6C18.04 10.6 14.2 7.26087 14.2 4.75652C14.2 2.68185 15.9192 1 18.04 1C20.1608 1 21.88 2.68185 21.88 4.75652Z" stroke="#86D3FF" stroke-width="2" stroke-linecap="round" stroke-linejoin="round"/>
</svg>
