<svg width="22" height="22" viewBox="0 0 22 22" fill="none" xmlns="http://www.w3.org/2000/svg">
<path d="M11.4711 4.92593C12.671 5.12703 13.7609 5.69375 14.6311 6.56211C15.5012 7.43048 16.0645 8.51822 16.2706 9.71565M11.6543 1C13.7884 1.36106 15.7348 2.3711 17.2827 3.91131C18.8307 5.45608 19.8382 7.39848 20.2 9.52825M18.533 18.0017C18.533 18.0017 17.3743 19.1397 17.0903 19.4733C16.6278 19.9669 16.0828 20.2 15.3684 20.2C15.2997 20.2 15.2264 20.2 15.1577 20.1954C13.7975 20.1086 12.5336 19.5784 11.5856 19.126C8.99344 17.8737 6.71733 16.0958 4.82592 13.8427C3.26424 11.9642 2.22007 10.2275 1.52854 8.36282C1.10263 7.2248 0.946916 6.33815 1.01561 5.50178C1.06141 4.96705 1.26749 4.52373 1.64761 4.14439L3.20929 2.58591C3.43369 2.37567 3.67184 2.26141 3.9054 2.26141C4.19392 2.26141 4.42749 2.43508 4.57404 2.58133C4.57862 2.58591 4.5832 2.59048 4.58778 2.59505C4.86714 2.85556 5.13276 3.12521 5.41212 3.41314C5.55409 3.55939 5.70064 3.70564 5.84719 3.85646L7.09745 5.10416C7.5829 5.58862 7.5829 6.03651 7.09745 6.52097C6.96464 6.65351 6.83641 6.78605 6.7036 6.91402C6.3189 7.30707 6.6211 7.00548 6.22267 7.36197C6.21351 7.37111 6.20435 7.37568 6.19977 7.38482C5.80591 7.77787 5.87919 8.16178 5.96162 8.42229C5.9662 8.436 5.97078 8.44971 5.97536 8.46342C6.30052 9.24952 6.75849 9.98991 7.4546 10.872L7.45918 10.8766C8.72318 12.4305 10.0559 13.6416 11.526 14.5694C11.7137 14.6882 11.9061 14.7842 12.0893 14.8756C12.2541 14.9579 12.4098 15.0356 12.5426 15.1178C12.561 15.127 12.5793 15.1407 12.5976 15.1498C12.7533 15.2275 12.8999 15.2641 13.051 15.2641C13.4311 15.2641 13.6693 15.0264 13.7471 14.9487L14.6448 14.0529C14.8005 13.8975 15.0478 13.7101 15.3363 13.7101C15.6203 13.7101 15.8538 13.8884 15.9958 14.0437C16.0004 14.0483 16.0004 14.0483 16.005 14.0529L18.5284 16.5711C19.0001 17.0373 18.533 18.0017 18.533 18.0017Z" stroke="#83CBFF" stroke-width="2" stroke-linecap="round" stroke-linejoin="round"/>
</svg>
