<svg width="25" height="26" viewBox="0 0 25 26" fill="none" xmlns="http://www.w3.org/2000/svg">
<path d="M13.5435 6.26927C14.9808 6.50676 16.2865 7.17606 17.3289 8.20159C18.3712 9.22713 19.046 10.5117 19.2929 11.9259M13.7629 1.63275C16.3195 2.05916 18.6511 3.25202 20.5054 5.071C22.3597 6.89537 23.5666 9.18933 24 11.7046M22.003 21.7117C22.003 21.7117 20.615 23.0557 20.2749 23.4497C19.7208 24.0326 19.068 24.3079 18.2121 24.3079C18.1298 24.3079 18.0421 24.3079 17.9598 24.3025C16.3304 24.1999 14.8162 23.5738 13.6806 23.0395C10.5755 21.5605 7.84889 19.4609 5.58313 16.7999C3.71237 14.5815 2.46154 12.5304 1.63314 10.3282C1.12294 8.98422 0.93641 7.9371 1.0187 6.94934C1.07356 6.31783 1.32044 5.79427 1.77578 5.34627L3.64654 3.5057C3.91536 3.25741 4.20064 3.12247 4.48043 3.12247C4.82605 3.12247 5.10584 3.32758 5.2814 3.5003C5.28688 3.5057 5.29237 3.5111 5.29786 3.5165C5.63251 3.82416 5.9507 4.14261 6.28535 4.48266C6.45542 4.65538 6.63098 4.8281 6.80653 5.00622L8.30424 6.47976C8.88576 7.0519 8.88576 7.58086 8.30424 8.153C8.14514 8.30953 7.99153 8.46606 7.83243 8.61719C7.3716 9.08138 7.73361 8.72521 7.25632 9.14622C7.24535 9.15701 7.23438 9.16241 7.22889 9.17321C6.75708 9.6374 6.84486 10.0908 6.94361 10.3985C6.9491 10.4146 6.95458 10.4308 6.96007 10.447C7.34958 11.3754 7.89819 12.2498 8.73208 13.2915L8.73757 13.2969C10.2517 15.1321 11.8482 16.5625 13.6092 17.6582C13.8341 17.7985 14.0646 17.9119 14.284 18.0198C14.4815 18.117 14.668 18.2087 14.8271 18.3059C14.8491 18.3167 14.871 18.3329 14.893 18.3437C15.0795 18.4354 15.255 18.4786 15.4361 18.4786C15.8914 18.4786 16.1767 18.1979 16.27 18.1062L17.3453 17.0482C17.5318 16.8647 17.8281 16.6434 18.1737 16.6434C18.5139 16.6434 18.7937 16.8539 18.9637 17.0374C18.9692 17.0428 18.9692 17.0428 18.9747 17.0482L21.9975 20.0222C22.5626 20.5728 22.003 21.7117 22.003 21.7117Z" stroke="#2B304A" stroke-width="2" stroke-linecap="round" stroke-linejoin="round"/>
</svg>
