<svg width="69" height="76" viewBox="0 0 69 76" fill="none" xmlns="http://www.w3.org/2000/svg">
<path fill-rule="evenodd" clip-rule="evenodd" d="M44.5306 2H23.7143V3.42856H44.5306V2ZM23.7143 0H21.7143V2V3.42856V5.42856H23.7143H28.6939V5.87756V7.30612V8.18457C12.4286 10.7848 0 24.8798 0 41.8776C0 60.7229 15.2771 76 34.1224 76C52.9678 76 68.2449 60.7229 68.2449 41.8776C68.2449 24.8798 55.8163 10.7848 39.551 8.18457V7.30612V5.87756V5.42856H44.5306H46.5306V3.42856V2V0H44.5306H23.7143ZM34.1224 74C51.8632 74 66.2449 59.6183 66.2449 41.8776C66.2449 24.1368 51.8632 9.75513 34.1224 9.75513C16.3817 9.75513 2 24.1368 2 41.8776C2 59.6183 16.3817 74 34.1224 74ZM30.6939 5.87756H37.551V7.30612H30.6939V5.87756Z" fill="#4E7089"/>
<path d="M34.5103 10.8572V15.1225" stroke="#4E7089" stroke-width="2"/>
<path d="M65.3369 41.6836L61.0716 41.6836" stroke="#4E7089" stroke-width="2"/>
<path d="M3.65918 41.6836L7.92449 41.6836" stroke="#4E7089" stroke-width="2"/>
<path d="M56.3076 63.4812L53.2916 60.4652" stroke="#4E7089" stroke-width="2"/>
<path d="M12.688 63.4812L15.704 60.4652" stroke="#4E7089" stroke-width="2"/>
<path d="M56.3076 19.8862L53.2916 22.9023" stroke="#4E7089" stroke-width="2"/>
<path d="M12.688 19.8862L15.704 22.9023" stroke="#4E7089" stroke-width="2"/>
<path d="M34.5103 68.2449V72.5102" stroke="#4E7089" stroke-width="2"/>
<path d="M27.5 35.5L34.5 43L49.5 28" stroke="#4E7089" stroke-width="2"/>
</svg>
