<svg width="141" height="21" viewBox="0 0 141 21" fill="none" xmlns="http://www.w3.org/2000/svg">
<path d="M1.565 20C1.367 20 1.205 19.937 1.079 19.811C0.953 19.685 0.89 19.523 0.89 19.325V1.775C0.89 1.577 0.953 1.415 1.079 1.289C1.205 1.163 1.367 1.1 1.565 1.1H9.125C10.619 1.1 11.915 1.334 13.013 1.802C14.129 2.252 14.993 2.936 15.605 3.854C16.235 4.772 16.55 5.933 16.55 7.337C16.55 8.723 16.235 9.866 15.605 10.766C14.993 11.666 14.129 12.332 13.013 12.764C11.915 13.196 10.619 13.412 9.125 13.412H5.912V19.325C5.912 19.523 5.84 19.685 5.696 19.811C5.57 19.937 5.408 20 5.21 20H1.565ZM5.831 9.686H8.99C9.764 9.686 10.376 9.488 10.826 9.092C11.294 8.696 11.528 8.093 11.528 7.283C11.528 6.599 11.33 6.023 10.934 5.555C10.538 5.087 9.89 4.853 8.99 4.853H5.831V9.686ZM18.4341 20C18.2361 20 18.0741 19.937 17.9481 19.811C17.8221 19.685 17.7591 19.523 17.7591 19.325V6.635C17.7591 6.455 17.8221 6.302 17.9481 6.176C18.0741 6.032 18.2361 5.96 18.4341 5.96H21.5391C21.7371 5.96 21.8991 6.032 22.0251 6.176C22.1511 6.302 22.2141 6.455 22.2141 6.635V7.715C22.7001 7.157 23.2761 6.725 23.9421 6.419C24.6261 6.113 25.3911 5.96 26.2371 5.96H27.4251C27.6051 5.96 27.7581 6.023 27.8841 6.149C28.0281 6.275 28.1001 6.437 28.1001 6.635V9.416C28.1001 9.596 28.0281 9.758 27.8841 9.902C27.7581 10.028 27.6051 10.091 27.4251 10.091H24.8061C24.0681 10.091 23.4921 10.298 23.0781 10.712C22.6821 11.108 22.4841 11.675 22.4841 12.413V19.325C22.4841 19.523 22.4121 19.685 22.2681 19.811C22.1421 19.937 21.9801 20 21.7821 20H18.4341ZM35.4764 20.27C33.9644 20.27 32.6864 20.027 31.6424 19.541C30.6164 19.055 29.8244 18.362 29.2664 17.462C28.7264 16.544 28.4204 15.455 28.3484 14.195C28.3304 13.835 28.3214 13.43 28.3214 12.98C28.3214 12.512 28.3304 12.107 28.3484 11.765C28.4204 10.487 28.7444 9.398 29.3204 8.498C29.8964 7.598 30.6974 6.905 31.7234 6.419C32.7674 5.933 34.0184 5.69 35.4764 5.69C36.9524 5.69 38.2034 5.933 39.2294 6.419C40.2734 6.905 41.0834 7.598 41.6594 8.498C42.2354 9.398 42.5594 10.487 42.6314 11.765C42.6494 12.107 42.6584 12.512 42.6584 12.98C42.6584 13.43 42.6494 13.835 42.6314 14.195C42.5594 15.455 42.2444 16.544 41.6864 17.462C41.1464 18.362 40.3544 19.055 39.3104 19.541C38.2844 20.027 37.0064 20.27 35.4764 20.27ZM35.4764 16.976C36.2864 16.976 36.8714 16.733 37.2314 16.247C37.6094 15.761 37.8254 15.032 37.8794 14.06C37.8974 13.79 37.9064 13.43 37.9064 12.98C37.9064 12.53 37.8974 12.17 37.8794 11.9C37.8254 10.946 37.6094 10.226 37.2314 9.74C36.8714 9.236 36.2864 8.984 35.4764 8.984C34.6844 8.984 34.0994 9.236 33.7214 9.74C33.3434 10.226 33.1364 10.946 33.1004 11.9C33.0824 12.17 33.0734 12.53 33.0734 12.98C33.0734 13.43 33.0824 13.79 33.1004 14.06C33.1364 15.032 33.3434 15.761 33.7214 16.247C34.0994 16.733 34.6844 16.976 35.4764 16.976Z" fill="#83CBFF"/>
<path d="M52.2799 20.27C50.5699 20.27 49.1029 19.991 47.8789 19.433C46.6729 18.875 45.7279 18.056 45.0439 16.976C44.3779 15.896 44.0089 14.555 43.9369 12.953C43.9189 12.215 43.9099 11.423 43.9099 10.577C43.9099 9.731 43.9189 8.921 43.9369 8.147C44.0089 6.581 44.3869 5.258 45.0709 4.178C45.7549 3.08 46.7089 2.252 47.9329 1.694C49.1569 1.118 50.6059 0.829999 52.2799 0.829999C53.4679 0.829999 54.5659 0.982999 55.5739 1.289C56.5819 1.577 57.4639 2.009 58.2199 2.585C58.9759 3.143 59.5609 3.827 59.9749 4.637C60.4069 5.429 60.6319 6.329 60.6499 7.337C60.6679 7.499 60.6139 7.634 60.4879 7.742C60.3799 7.85 60.2449 7.904 60.0829 7.904H56.4379C56.2039 7.904 56.0239 7.859 55.8979 7.769C55.7719 7.661 55.6639 7.472 55.5739 7.202C55.3219 6.248 54.9079 5.6 54.3319 5.258C53.7739 4.898 53.0809 4.718 52.2529 4.718C51.2629 4.718 50.4799 4.997 49.9039 5.555C49.3279 6.095 49.0129 7.004 48.9589 8.282C48.9049 9.758 48.9049 11.27 48.9589 12.818C49.0129 14.096 49.3279 15.014 49.9039 15.572C50.4799 16.112 51.2629 16.382 52.2529 16.382C53.0809 16.382 53.7829 16.202 54.3589 15.842C54.9349 15.482 55.3399 14.834 55.5739 13.898C55.6459 13.628 55.7449 13.448 55.8709 13.358C56.0149 13.25 56.2039 13.196 56.4379 13.196H60.0829C60.2449 13.196 60.3799 13.25 60.4879 13.358C60.6139 13.466 60.6679 13.601 60.6499 13.763C60.6319 14.771 60.4069 15.68 59.9749 16.49C59.5609 17.282 58.9759 17.966 58.2199 18.542C57.4639 19.1 56.5819 19.532 55.5739 19.838C54.5659 20.126 53.4679 20.27 52.2799 20.27ZM68.7539 20.27C67.2419 20.27 65.9639 20.027 64.9199 19.541C63.8939 19.055 63.1019 18.362 62.5439 17.462C62.0039 16.544 61.6979 15.455 61.6259 14.195C61.6079 13.835 61.5989 13.43 61.5989 12.98C61.5989 12.512 61.6079 12.107 61.6259 11.765C61.6979 10.487 62.0219 9.398 62.5979 8.498C63.1739 7.598 63.9749 6.905 65.0009 6.419C66.0449 5.933 67.2959 5.69 68.7539 5.69C70.2299 5.69 71.4809 5.933 72.5069 6.419C73.5509 6.905 74.3609 7.598 74.9369 8.498C75.5129 9.398 75.8369 10.487 75.9089 11.765C75.9269 12.107 75.9359 12.512 75.9359 12.98C75.9359 13.43 75.9269 13.835 75.9089 14.195C75.8369 15.455 75.5219 16.544 74.9639 17.462C74.4239 18.362 73.6319 19.055 72.5879 19.541C71.5619 20.027 70.2839 20.27 68.7539 20.27ZM68.7539 16.976C69.5639 16.976 70.1489 16.733 70.5089 16.247C70.8869 15.761 71.1029 15.032 71.1569 14.06C71.1749 13.79 71.1839 13.43 71.1839 12.98C71.1839 12.53 71.1749 12.17 71.1569 11.9C71.1029 10.946 70.8869 10.226 70.5089 9.74C70.1489 9.236 69.5639 8.984 68.7539 8.984C67.9619 8.984 67.3769 9.236 66.9989 9.74C66.6209 10.226 66.4139 10.946 66.3779 11.9C66.3599 12.17 66.3509 12.53 66.3509 12.98C66.3509 13.43 66.3599 13.79 66.3779 14.06C66.4139 15.032 66.6209 15.761 66.9989 16.247C67.3769 16.733 67.9619 16.976 68.7539 16.976ZM78.1864 20C77.9884 20 77.8264 19.937 77.7004 19.811C77.5744 19.685 77.5114 19.523 77.5114 19.325V6.635C77.5114 6.437 77.5744 6.275 77.7004 6.149C77.8264 6.023 77.9884 5.96 78.1864 5.96H81.2914C81.4894 5.96 81.6514 6.023 81.7774 6.149C81.9034 6.275 81.9664 6.437 81.9664 6.635V7.661C82.4344 7.103 83.0464 6.635 83.8024 6.257C84.5584 5.879 85.4494 5.69 86.4754 5.69C87.5194 5.69 88.4374 5.924 89.2294 6.392C90.0394 6.86 90.6694 7.553 91.1194 8.471C91.5874 9.371 91.8214 10.478 91.8214 11.792V19.325C91.8214 19.523 91.7494 19.685 91.6054 19.811C91.4794 19.937 91.3264 20 91.1464 20H87.7444C87.5644 20 87.4024 19.937 87.2584 19.811C87.1324 19.685 87.0694 19.523 87.0694 19.325V11.954C87.0694 11.108 86.8624 10.46 86.4484 10.01C86.0524 9.542 85.4584 9.308 84.6664 9.308C83.9284 9.308 83.3344 9.542 82.8844 10.01C82.4524 10.46 82.2364 11.108 82.2364 11.954V19.325C82.2364 19.523 82.1644 19.685 82.0204 19.811C81.8944 19.937 81.7414 20 81.5614 20H78.1864ZM99.5326 20.27C98.3626 20.27 97.3636 20.144 96.5356 19.892C95.7256 19.622 95.0596 19.298 94.5376 18.92C94.0336 18.542 93.6556 18.155 93.4036 17.759C93.1516 17.345 93.0166 16.994 92.9986 16.706C92.9806 16.508 93.0436 16.346 93.1876 16.22C93.3316 16.076 93.4846 16.004 93.6466 16.004H96.7246C96.7786 16.004 96.8236 16.013 96.8596 16.031C96.8956 16.049 96.9496 16.085 97.0216 16.139C97.2556 16.265 97.4896 16.427 97.7236 16.625C97.9576 16.805 98.2276 16.967 98.5336 17.111C98.8396 17.255 99.2086 17.327 99.6406 17.327C100.145 17.327 100.568 17.228 100.91 17.03C101.252 16.832 101.423 16.535 101.423 16.139C101.423 15.851 101.342 15.617 101.18 15.437C101.018 15.239 100.685 15.05 100.181 14.87C99.6946 14.69 98.9566 14.51 97.9666 14.33C97.0306 14.114 96.2116 13.835 95.5096 13.493C94.8076 13.133 94.2676 12.674 93.8896 12.116C93.5116 11.54 93.3226 10.847 93.3226 10.037C93.3226 9.317 93.5566 8.624 94.0246 7.958C94.4926 7.292 95.1766 6.752 96.0766 6.338C96.9766 5.906 98.0836 5.69 99.3976 5.69C100.442 5.69 101.342 5.816 102.098 6.068C102.872 6.302 103.52 6.608 104.042 6.986C104.582 7.364 104.987 7.751 105.257 8.147C105.527 8.543 105.671 8.903 105.689 9.227C105.707 9.407 105.653 9.569 105.527 9.713C105.401 9.839 105.257 9.902 105.095 9.902H102.287C102.215 9.902 102.143 9.893 102.071 9.875C101.999 9.839 101.936 9.803 101.882 9.767C101.666 9.659 101.45 9.515 101.234 9.335C101.018 9.155 100.766 8.993 100.478 8.849C100.19 8.705 99.8296 8.633 99.3976 8.633C98.9116 8.633 98.5336 8.741 98.2636 8.957C97.9936 9.173 97.8586 9.452 97.8586 9.794C97.8586 10.028 97.9306 10.244 98.0746 10.442C98.2366 10.64 98.5516 10.82 99.0196 10.982C99.5056 11.144 100.253 11.324 101.261 11.522C102.503 11.72 103.493 12.044 104.231 12.494C104.969 12.926 105.491 13.439 105.797 14.033C106.103 14.609 106.256 15.221 106.256 15.869C106.256 16.733 105.995 17.498 105.473 18.164C104.969 18.83 104.213 19.352 103.205 19.73C102.197 20.09 100.973 20.27 99.5326 20.27ZM112.755 20.27C111.729 20.27 110.811 20.036 110.001 19.568C109.209 19.1 108.588 18.416 108.138 17.516C107.688 16.598 107.463 15.482 107.463 14.168V6.635C107.463 6.437 107.526 6.275 107.652 6.149C107.778 6.023 107.94 5.96 108.138 5.96H111.513C111.711 5.96 111.873 6.023 111.999 6.149C112.125 6.275 112.188 6.437 112.188 6.635V14.006C112.188 15.77 112.98 16.652 114.564 16.652C115.302 16.652 115.887 16.427 116.319 15.977C116.769 15.509 116.994 14.852 116.994 14.006V6.635C116.994 6.437 117.057 6.275 117.183 6.149C117.309 6.023 117.471 5.96 117.669 5.96H121.044C121.242 5.96 121.404 6.023 121.53 6.149C121.656 6.275 121.719 6.437 121.719 6.635V19.325C121.719 19.523 121.656 19.685 121.53 19.811C121.404 19.937 121.242 20 121.044 20H117.912C117.732 20 117.57 19.937 117.426 19.811C117.3 19.685 117.237 19.523 117.237 19.325V18.299C116.769 18.947 116.157 19.442 115.401 19.784C114.663 20.108 113.781 20.27 112.755 20.27ZM124.49 20C124.292 20 124.13 19.937 124.004 19.811C123.878 19.685 123.815 19.523 123.815 19.325V1.505C123.815 1.307 123.878 1.145 124.004 1.019C124.13 0.892999 124.292 0.829999 124.49 0.829999H127.676C127.874 0.829999 128.036 0.892999 128.162 1.019C128.288 1.145 128.351 1.307 128.351 1.505V19.325C128.351 19.523 128.288 19.685 128.162 19.811C128.036 19.937 127.874 20 127.676 20H124.49ZM137.643 20C136.491 20 135.492 19.82 134.646 19.46C133.818 19.082 133.179 18.506 132.729 17.732C132.279 16.94 132.054 15.923 132.054 14.681V9.497H129.948C129.75 9.497 129.579 9.434 129.435 9.308C129.309 9.182 129.246 9.02 129.246 8.822V6.635C129.246 6.437 129.309 6.275 129.435 6.149C129.579 6.023 129.75 5.96 129.948 5.96H132.054V1.505C132.054 1.307 132.117 1.145 132.243 1.019C132.387 0.892999 132.549 0.829999 132.729 0.829999H135.861C136.059 0.829999 136.221 0.892999 136.347 1.019C136.473 1.145 136.536 1.307 136.536 1.505V5.96H139.911C140.109 5.96 140.271 6.023 140.397 6.149C140.523 6.275 140.586 6.437 140.586 6.635V8.822C140.586 9.02 140.523 9.182 140.397 9.308C140.271 9.434 140.109 9.497 139.911 9.497H136.536V14.303C136.536 14.915 136.653 15.401 136.887 15.761C137.121 16.121 137.517 16.301 138.075 16.301H140.154C140.352 16.301 140.514 16.364 140.64 16.49C140.766 16.616 140.829 16.778 140.829 16.976V19.325C140.829 19.523 140.766 19.685 140.64 19.811C140.514 19.937 140.352 20 140.154 20H137.643Z" fill="#2B304A"/>
</svg>
